{"title":"Hancock-dual audio(hindi)blu-rayRip.aaaevilacharya","uid":5821311,"size":856619887,"categoryP":"video","categoryS":"movies","magnet":"?xt=urn:btih:289722974a286d1d3725a8580026c2f73d97a556&amp;dn=Hancock-dual+audio%28hindi%29blu-rayRip.aaaevilacharya&amp;tr=udp%3A%2F%2Ftracker.openbittorrent.com%3A80&amp;tr=udp%3A%2F%2Fopen.demonii.com%3A1337&amp;tr=udp%3A%2F%2Ftracker.coppersurfer.tk%3A6969&amp;tr=udp%3A%2F%2Fexodus.desync.com%3A6969","seeders":0,"leechers":3,"uploader":"achaevil","files":2,"time":1284067177,"description":"General\nname : Hancock\nFormat : Matroska\nFile size : 817 MiB\nDuration : 1h 32mn\nOverall bit rate : 1 238kbps\nGenre : Action | Crime | Fantasy\nRelease Date :11 July 2008 (India)\nPlot:A hard-living superhero who has fallen out of favor with the public enters into a questionable relationship with the wife of the public relations professional who's trying to repair his image.\n\nVideo\nID : 1\nFormat : MPEG-4 Visual\nFormat profile : Advanced Simple@L5\nFormat settings, BVOP : Yes\nFormat settings, QPel : No\nFormat settings, GMC : No warppoints\nFormat settings, Matrix : Default (H.263)\nCodec ID : DX50\nCodec ID/Hint : DivX 5\nDuration : 1h 32mn\nBit rate : 905 Kbps\nWidth : 692 pixels\nHeight : 284 pixels\nDisplay aspect ratio : 2.40:1\nFrame rate : 23.976 fps\nColor space : YUV\nChroma subsampling : 4:2:0\nBit depth : 8 bits\nScan type : Progressive\nBits/(Pixel*Frame) : 0.192\nStream size : 598 MiB (73%)\nWriting library : XviD 1.0.3 (UTC 2004-12-20)\n\nAudio #1\nID : 2\nFormat : MPEG Audio\nFormat version : Version 1\nFormat profile : Layer 3\nCodec ID : A_MPEG/L3\nCodec ID/Hint : MP3\nDuration : 1h 32mn\nBit rate mode : Constant\nBit rate : 128 Kbps\nChannel(s) : 2 channels\nSampling rate : 48.0 KHz\nStream size : 84.5 MiB (10%)\nTitle : English\n\nAudio #2\nID : 3\nFormat : MPEG Audio\nFormat version : Version 1\nFormat profile : Layer 3\nMode : Joint stereo\nCodec ID : A_MPEG/L3\nCodec ID/Hint : MP3\nDuration : 1h 32mn\nBit rate mode : Variable\nBit rate : 180 Kbps\nChannel(s) : 2 channels\nSampling rate : 44.1 KHz\nStream size : 119 MiB (15%)\nTitle : Hindi\nLanguage : / Hindi\n\nenglish &amp; hindi dual audio","torrent":{"xt":"urn:btih:289722974a286d1d3725a8580026c2f73d97a556","amp;dn":"Hancock-dual+audio%28hindi%29blu-rayRip.aaaevilacharya","amp;tr":["udp%3A%2F%2Ftracker.openbittorrent.com%3A80","udp%3A%2F%2Fopen.demonii.com%3A1337","udp%3A%2F%2Ftracker.coppersurfer.tk%3A6969","udp%3A%2F%2Fexodus.desync.com%3A6969"],"infoHash":"289722974a286d1d3725a8580026c2f73d97a556","infoHashBuffer":{"type":"Buffer","data":[40,151,34,151,74,40,109,29,55,37,168,88,0,38,194,247,61,151,165,86]},"announce":[],"urlList":[]}}